<?xml version="1.0" encoding="UTF-8" standalone="no"?>
<!-- Created with Inkscape (http://www.inkscape.org/) -->

<svg
   xmlns:dc="http://purl.org/dc/elements/1.1/"
   xmlns:cc="http://creativecommons.org/ns#"
   xmlns:rdf="http://www.w3.org/1999/02/22-rdf-syntax-ns#"
   xmlns:svg="http://www.w3.org/2000/svg"
   xmlns="http://www.w3.org/2000/svg"
   xmlns:sodipodi="http://sodipodi.sourceforge.net/DTD/sodipodi-0.dtd"
   xmlns:inkscape="http://www.inkscape.org/namespaces/inkscape"
   width="32"
   height="32"
   viewBox="0 0 8.4666669 8.4666669"
   version="1.1"
   id="svg8"
   sodipodi:docname="favicon.svg"
   inkscape:version="0.92.3 (2405546, 2018-03-11)">
  <defs
     id="defs2" />
  <sodipodi:namedview
     id="base"
     pagecolor="#ffffff"
     bordercolor="#666666"
     borderopacity="1.0"
     inkscape:pageopacity="0.0"
     inkscape:pageshadow="2"
     inkscape:zoom="14.660851"
     inkscape:cx="17.442841"
     inkscape:cy="16.097292"
     inkscape:document-units="mm"
     inkscape:current-layer="layer1"
     showgrid="false"
     inkscape:measure-start="1563.16,-821.666"
     inkscape:measure-end="1574.22,-832.725"
     inkscape:window-width="1366"
     inkscape:window-height="703"
     inkscape:window-x="0"
     inkscape:window-y="0"
     inkscape:window-maximized="1"
     inkscape:snap-midpoints="true"
     fit-margin-top="0"
     fit-margin-left="0"
     fit-margin-right="0"
     fit-margin-bottom="0"
     units="px">
    <inkscape:grid
       type="xygrid"
       id="grid995"
       originx="476.30146"
       originy="436.33619" />
  </sodipodi:namedview>
  <metadata
     id="metadata5">
    <rdf:RDF>
      <cc:Work
         rdf:about="">
        <dc:format>image/svg+xml</dc:format>
        <dc:type
           rdf:resource="http://purl.org/dc/dcmitype/StillImage" />
        <dc:title></dc:title>
      </cc:Work>
    </rdf:RDF>
  </metadata>
  <g
     inkscape:label="Camada 1"
     inkscape:groupmode="layer"
     id="layer1"
     transform="translate(476.30149,-724.86951)">
    <g
       id="g871"
       transform="matrix(0.00723849,0,0,0.00723849,-472.8282,728.02793)">
      <path
         inkscape:connector-curvature="0"
         d="m 193.32021,68.984898 44.38354,-35.00423 C 227.54384,22.053447 211.9354,14.760696 192.81109,14.760696 h -91.01998 c -19.124539,0 -38.641036,7.293337 -55.192991,19.221062 l 25.624099,35.00314 c 4.952974,-2.902789 10.557044,-4.577664 16.266122,-4.577664 h 91.02 c 5.70922,0 10.41459,1.674854 13.81187,4.577664 z M 38.824059,40.109496 C 23.319023,53.464506 11.32098,71.026382 6.1968741,90.150041 l -11.2747835,42.078069 -10.0980816,37.68655 -5.015969,18.71985 h -0.0011 l -4.880237,18.2133 c -5.124349,19.12433 -2.537707,36.68792 5.810773,50.04381 l 44.383617,-35.00427 c -1.784285,-4.17517 -2.077626,-9.33019 -0.547852,-15.03954 l 2.174147,-8.11403 h 10e-4 l 7.722059,-28.81912 10.098082,-37.68655 11.274783,-42.078069 c 1.52949,-5.708135 4.584396,-10.862544 8.604782,-15.037383 z m -9.214966,187.905614 -44.383627,35.00423 c 10.1600003,11.92722 25.76846,19.21997 44.892748,19.21997 h 91.019896 c 19.12452,0 38.64108,-7.29334 55.19312,-19.22106 l -25.62429,-35.00314 c -4.95289,2.90279 -10.55686,4.57766 -16.26608,4.57766 H 43.420963 c -5.709182,0 -10.414565,-1.67485 -13.81187,-4.57766 z"
         style="color:#000000;font-style:normal;font-variant:normal;font-weight:normal;font-stretch:normal;font-size:medium;line-height:normal;font-family:sans-serif;font-variant-ligatures:normal;font-variant-position:normal;font-variant-caps:normal;font-variant-numeric:normal;font-variant-alternates:normal;font-feature-settings:normal;text-indent:0;text-align:start;text-decoration:none;text-decoration-line:none;text-decoration-style:solid;text-decoration-color:#000000;letter-spacing:normal;word-spacing:normal;text-transform:none;writing-mode:lr-tb;direction:ltr;text-orientation:mixed;dominant-baseline:auto;baseline-shift:baseline;text-anchor:start;white-space:normal;shape-padding:0;clip-rule:nonzero;display:inline;overflow:visible;visibility:visible;opacity:1;isolation:auto;mix-blend-mode:normal;color-interpolation:sRGB;color-interpolation-filters:linearRGB;solid-color:#000000;solid-opacity:1;vector-effect:none;fill:#0ac92c;fill-opacity:1;fill-rule:nonzero;stroke:none;stroke-width:49.64360809;stroke-linecap:square;stroke-linejoin:miter;stroke-miterlimit:4;stroke-dasharray:none;stroke-dashoffset:0;stroke-opacity:1;color-rendering:auto;image-rendering:auto;shape-rendering:auto;text-rendering:auto;enable-background:accumulate"
         id="path4762-5" />
      <path
         d="m 105.8117,-436.33616 c -3.0055,0.003 -5.979236,0.15563 -7.966945,0.45992 -13.329311,2.04066 -24.92502,7.99047 -33.881139,17.38498 -8.254047,8.65807 -13.364342,19.27061 -15.077122,31.3087 -0.494454,3.47626 -0.4894,10.95732 0.0098,14.76756 3.287448,25.07796 23.615385,45.24748 49.080737,48.69832 3.790609,0.51355 11.643099,0.52905 15.530329,0.0305 6.29819,-0.80778 12.03812,-2.53888 17.93893,-5.40949 17.10037,-8.31893 28.58791,-23.90232 31.50661,-42.74106 0.83997,-5.42172 0.59952,-13.29715 -0.586,-19.18228 -4.70376,-23.35016 -24.19188,-41.41782 -48.39602,-44.86806 -2.11566,-0.3016 -5.15318,-0.45104 -8.15866,-0.44908 z m -0.75239,7.75922 c 3.80232,-0.0101 8.09032,0.32062 10.90991,0.90848 19.68423,4.10384 34.63506,18.82312 38.79815,38.19715 0.91437,4.25529 1.15298,11.76967 0.51366,16.17937 -1.54503,10.6566 -6.27065,20.14034 -13.77796,27.65154 -8.00145,8.00559 -18.80219,13.17564 -30.08757,14.40222 -9.38742,1.02028 -19.125487,-0.69459 -27.593159,-4.85965 -5.779849,-2.84299 -9.588764,-5.63882 -14.194975,-10.42004 -7.157402,-7.42883 -11.718634,-16.88555 -13.033851,-27.02264 -3.515598,-27.09706 16.084735,-51.64063 43.765285,-54.80338 1.34416,-0.15357 2.97217,-0.22844 4.70051,-0.23305 z m 0.201,6.67917 c -2.96455,0.008 -5.943017,0.33004 -8.892459,0.97256 -14.17021,3.08689 -26.208593,13.88559 -30.805358,27.63345 -2.85877,8.54969 -2.862448,18.10549 -0.01085,26.77046 1.086855,3.30258 3.906494,8.7202 5.977387,11.48561 6.939809,9.26598 16.859779,15.16066 28.300601,16.81706 3.500409,0.50679 9.883489,0.3168 13.555769,-0.40308 10.95163,-2.14684 20.72664,-8.63579 26.88778,-17.84955 14.11301,-21.1056 6.58884,-49.59321 -16.10188,-60.9632 -5.93355,-2.97323 -12.38893,-4.48003 -18.91099,-4.46331 z m 210.66673,47.70512 c -1.01079,0 -2.02446,0.0418 -3.03806,0.12401 -5.68465,0.46119 -9.92132,1.66824 -14.88022,4.23953 -3.92572,2.03556 -6.94478,4.30607 -10.1079,7.60161 -6.63683,6.9146 -10.20432,15.21991 -10.70374,24.91889 -1.01868,19.78262 13.43236,37.32004 33.11374,40.18617 3.00212,0.43719 8.86126,0.33102 12.07315,-0.2191 15.89839,-2.72303 28.06694,-14.59518 31.47406,-30.70665 0.77462,-3.66318 0.84511,-10.55727 0.14468,-14.15521 -1.67968,-8.62787 -5.47542,-15.64255 -11.60444,-21.44417 -7.17003,-6.78702 -16.70034,-10.55175 -26.47127,-10.54508 z m -414.93178,0.23925 c -5.88968,0 -7.7266,0.27282 -12.47571,1.8526 -10.4715,3.48336 -19.26331,11.76868 -23.3779,22.03173 -6.04491,15.07809 -2.41276,31.7005 9.36273,42.84699 5.5336,5.23793 12.31437,8.58831 20.27317,10.01696 1.36742,0.24547 3.58865,0.32625 7.143752,0.26045 5.548206,-0.10263 7.869316,-0.50317 12.435416,-2.14612 9.112515,-3.27886 16.946827,-10.34754 21.390425,-19.30011 2.696712,-5.43292 3.85818,-10.5835 3.85818,-17.06563 -0.0026,-4.79553 -0.368485,-7.30315 -1.700688,-11.64166 -3.604102,-11.73805 -13.325899,-21.53191 -25.036701,-25.22224 -4.389702,-1.3833 -6.204558,-1.63297 -11.872674,-1.63297 z m 581.97845,113.9827 c -15.16462,-0.0761 -29.76851,8.83605 -35.98903,23.74532 -2.25038,5.39369 -3.07099,10.14437 -2.85255,16.51734 0.15835,4.62001 0.53216,6.75425 1.90688,10.89443 4.55784,13.72694 17.00776,24.00713 31.48748,25.99996 2.64147,0.36355 9.88891,0.15209 12.51447,-0.36535 17.17678,-3.38518 30.14229,-18.04597 31.24616,-35.3317 1.03497,-16.20744 -7.43998,-30.72835 -22.00847,-37.70829 -5.26158,-2.52086 -10.81989,-3.72416 -16.30494,-3.75171 z m -751.689,1.59887 c -12.82216,-0.0615 -25.08644,6.22526 -32.29107,16.99948 -3.2979,4.93188 -5.15064,9.55601 -6.13915,15.32103 -0.74531,4.34601 -0.57407,10.82327 0.39534,14.95257 2.52079,10.73809 9.25634,19.75928 18.83293,25.2243 3.70052,2.11172 8.56388,3.7781 13.22917,4.53306 3.03202,0.49065 9.9623,0.35799 13.04779,-0.25011 9.2914,-1.83113 17.98246,-7.30097 23.76805,-14.95878 2.09302,-2.7703 5.14112,-8.83274 6.05132,-12.03544 2.19109,-7.7098 2.0516,-15.77166 -0.40101,-23.18411 -1.82049,-5.50179 -4.58848,-10.18285 -8.47958,-14.3397 -5.5945,-5.9767 -12.91568,-10.03465 -20.86178,-11.56312 -2.38416,-0.4586 -4.77756,-0.68778 -7.15201,-0.69918 z m -112.33528,172.842162 c -4.98988,-0.0017 -7.45165,0.36319 -11.76464,1.74408 -13.66671,4.375681 -23.73863,15.884937 -26.36584,30.127875 -0.62669,3.397785 -0.62669,10.060832 0,13.458611 0.96509,5.23222 2.93926,10.17416 5.79964,14.51746 6.25552,9.498589 16.11654,15.661232 27.56834,17.2299544 2.5355,0.3473106 9.02295,0.1426369 11.86595,-0.3746526 15.376,-2.7974638 27.54125,-14.7528018 30.91336,-30.3795398 0.84019,-3.893921 0.84019,-11.551637 0,-15.445571 -2.5151,-11.65534 -9.76801,-21.220763 -20.23443,-26.686742 -5.63779,-2.944194 -10.92007,-4.188475 -17.78238,-4.191475 z m 977.10624,1.586983 c -4.9802,0.0018 -7.44625,0.366227 -11.76465,1.738913 -7.41399,2.356699 -14.46929,7.386037 -19.21589,13.698389 -2.09029,2.779773 -5.16324,8.870378 -6.04922,11.989448 -2.1168,7.452024 -2.1168,14.898036 0,22.350055 0.88598,3.119062 3.95893,9.209143 6.04922,11.988932 6.4593,8.589912 16.49188,14.2655951 27.27637,15.4305846 2.04552,0.22098 8.49162,-0.07335 10.80762,-0.4935114 7.9964,-1.4507289 15.94517,-5.8335812 21.47208,-11.8390692 3.88109,-4.21722 7.46638,-10.672003 8.85526,-15.943212 5.32032,-20.192394 -5.5861,-40.558278 -25.2217,-47.096868 -4.20881,-1.401469 -7.04757,-1.826661 -12.20909,-1.823661 z M -419.30196,77.005111 c -2.77085,0.02633 -5.52789,0.173681 -7.34322,0.433049 -13.3218,1.903309 -24.99024,7.871185 -34.17726,17.479552 -16.1711,16.912928 -20.08146,42.161108 -9.78906,63.207008 2.9038,5.93762 6.68679,11.0699 11.76568,15.96181 9.71751,9.35953 22.57869,15.0237 36.12338,15.9096 30.3123,1.98266 56.90782,-19.35916 60.98542,-48.93808 0.54721,-3.96981 0.54721,-11.11145 0,-15.08125 -1.97268,-14.30994 -9.51664,-27.492986 -20.92222,-36.561077 -8.13331,-6.466488 -18.72697,-10.860982 -29.21529,-12.118123 -1.87147,-0.22434 -4.65661,-0.31882 -7.42743,-0.292489 z m 1048.03367,0.165365 c -5.8569,0.0047 -7.16566,0.08347 -9.92188,0.598929 -16.0782,3.00696 -29.23738,11.507017 -38.06589,24.587645 -3.71359,5.50235 -6.8639,12.81019 -8.231,19.09341 -1.29331,5.94395 -1.61338,14.03453 -0.78497,19.84013 2.91719,20.44326 16.80694,37.67919 36.38434,45.15021 4.5154,1.72312 10.30544,3.03757 15.67915,3.55949 1.33459,0.12972 4.16806,0.18552 6.29677,0.12401 15.6695,-0.4531 29.51834,-6.46697 40.23114,-17.47025 9.34,-9.59316 14.82042,-21.78368 15.82951,-35.21129 1.9825,-26.38073 -15.54146,-51.014633 -41.47706,-58.304962 -5.86168,-1.64769 -8.5014,-1.97332 -15.94011,-1.967322 z m -1047.07199,7.519955 c 5.63946,0.04612 11.36107,1.036445 16.94058,3.056144 3.43289,1.24269 8.72678,4.011494 11.58018,6.056995 13.24239,9.49325 20.80749,23.93228 20.80749,39.71385 0,24.48876 -18.47667,45.18942 -43.20717,48.40892 -3.30179,0.42982 -9.36101,0.48673 -12.53051,0.11732 -16.2174,-1.89018 -30.74522,-11.8241 -38.27052,-26.16893 -7.27239,-13.86275 -7.33322,-30.67315 -0.16124,-44.41539 8.87122,-16.99823 26.41896,-26.919554 44.84119,-26.768909 z m 1047.01619,0.01344 c 17.63329,-0.01405 33.9784,9.176248 43.05371,24.207309 2.6557,4.39843 4.72004,9.72005 5.84253,15.06264 0.92411,4.39821 1.16155,11.64128 0.52554,16.0259 -1.36228,9.39313 -4.99843,17.52471 -11.07321,24.76437 -7.40952,8.83031 -17.63823,14.68345 -29.61163,16.94471 -3.12359,0.58989 -12.51628,0.71901 -15.82489,0.21754 -6.7228,-1.01896 -13.20922,-3.32671 -18.78542,-6.68433 -10.50157,-6.32335 -18.29633,-16.2988 -21.79814,-27.89648 -1.25799,-4.16663 -1.76697,-7.34935 -1.93839,-12.1202 -0.38923,-10.8428 2.54248,-20.59665 8.9204,-29.67519 1.9146,-2.72534 6.26501,-7.372447 8.95553,-9.566338 8.77152,-7.15291 20.35657,-11.270932 31.73397,-11.279931 z M -419.36708,91.42129 v 5.29e-4 c -4.45251,0.01659 -8.92619,0.773716 -13.43948,2.271697 -6.1826,2.052 -11.37412,5.289552 -16.10963,10.045384 -3.49959,3.51454 -5.70442,6.50871 -7.7592,10.53734 -8.74101,17.13767 -4.93041,37.58346 9.4175,50.52664 6.10499,5.50738 14.39317,9.31053 22.55107,10.3482 2.65052,0.33697 7.57928,0.34827 10.19318,0.0238 9.9223,-1.23283 17.83805,-5.09421 24.88324,-12.13829 3.80151,-3.8009 6.01197,-6.91306 8.28477,-11.66337 10.8187,-22.61288 -0.84506,-49.88919 -24.70806,-57.779941 -4.42929,-1.46463 -8.8609,-2.188551 -13.31339,-2.171959 z m 1047.7226,0.186552 c -3.2781,0.0039 -6.65398,0.257951 -8.82374,0.738455 -10.9202,2.418271 -20.16803,8.699163 -26.29453,17.858343 -7.62569,11.4005 -9.14742,25.95191 -4.05972,38.82399 5.61912,14.21638 18.85003,24.35609 34.26251,26.25731 0.50933,0.063 3.06914,0.0811 5.68854,0.0408 3.62421,-0.0557 5.40727,-0.20825 7.46107,-0.63873 16.97979,-3.55896 29.99282,-16.95826 33.04603,-34.02685 0.71739,-4.01079 0.6653,-10.98554 -0.1111,-14.88436 -3.50519,-17.60286 -16.86956,-30.734509 -34.31058,-33.71319 -1.81819,-0.310526 -4.30884,-0.458833 -6.85848,-0.455788 z M -380.68986,308.41321 c -4.28138,-0.036 -8.5996,0.63069 -12.7744,2.02882 -7.31502,2.44975 -13.99673,7.33939 -18.73272,13.70769 -9.82749,13.21454 -10.04159,31.90807 -0.51778,45.22566 6.48739,9.07169 15.34509,14.39473 27.03398,16.24552 0.3638,0.0576 2.34622,0.12075 4.40542,0.14055 8.47341,0.0816 16.57927,-2.51352 23.13297,-7.40574 10.60709,-7.91806 16.30204,-19.75933 15.76234,-32.77474 -0.30869,-7.44585 -2.45711,-14.06046 -6.57222,-20.23546 -1.79089,-2.68745 -6.04904,-7.12211 -8.87336,-9.24182 -6.65133,-4.99192 -14.69067,-7.62182 -22.86423,-7.69048 z m 976.32127,1.04023 c -2.78704,0.003 -5.54903,0.17182 -7.11377,0.508 -4.83391,1.03844 -9.28619,2.74651 -12.8323,4.92268 -9.35069,5.73847 -15.86685,15.07871 -18.04386,25.86302 -0.67088,3.30907 -0.66919,11.48459 0,14.62342 1.0533,4.94003 3.30149,10.4149 5.80689,14.1397 6.39871,9.51339 16.67351,15.77591 27.97709,17.05269 h 0.003 c 13.2081,1.49188 26.69299,-4.19225 34.76791,-14.65593 2.1005,-2.72183 2.76029,-3.76471 4.20439,-6.64097 4.03191,-8.03052 5.08778,-17.4766 2.94349,-26.33223 -3.57492,-14.76388 -15.33604,-25.96039 -30.44724,-28.98479 -1.66606,-0.33337 -4.47813,-0.49794 -7.2652,-0.49559 z m -113.0577,168.98969 v 0 c -0.42823,-0.004 -0.8727,-0.004 -1.32652,0 -3.02543,0.0317 -6.45456,0.26337 -8.09048,0.61752 -7.80325,1.68931 -13.91213,5.02745 -19.58795,10.70324 -5.74781,5.74783 -9.04753,11.83775 -10.75645,19.85253 -0.69207,3.24551 -0.68035,11.6101 0.0201,14.94896 3.60513,17.17045 17.66414,29.6863 34.90484,31.07407 8.05984,0.64878 16.14231,-1.24262 23.06836,-5.39864 20.67962,-12.40896 25.04966,-40.66564 9.09661,-58.81759 -6.11219,-6.9547 -14.7574,-11.5444 -24.11997,-12.80491 -0.78743,-0.10599 -1.92389,-0.16224 -3.2086,-0.17571 z m -747.92487,0.046 c -2.9908,0.023 -6.00173,0.24606 -7.85016,0.65992 -7.80331,1.74715 -13.75979,5.0119 -19.3642,10.61331 -4.5884,4.58608 -7.54448,9.3563 -9.49399,15.32205 -1.40901,4.3117 -1.72783,6.54092 -1.72704,12.07886 0,5.56657 0.42892,8.26657 2.02883,12.80076 5.05409,14.32374 18.21246,24.4511 33.37004,25.68371 13.94981,1.13437 27.54326,-5.39454 35.25316,-16.9323 6.87599,-10.2897 8.49024,-22.77907 4.45297,-34.45476 -4.43262,-12.81898 -15.23588,-22.23791 -28.9409,-25.23151 -1.76717,-0.38605 -4.73792,-0.56303 -7.72871,-0.54004 z m 580.02195,114.87414 c -4.43457,0 -5.54463,0.0864 -7.90546,0.61495 -11.82205,2.64689 -21.49157,10.09184 -26.7131,20.56773 -3.23524,6.49089 -4.49437,13.00847 -3.9579,20.4892 1.33136,18.56528 16.03754,33.48675 34.93895,35.45104 4.54228,0.47202 10.71533,-0.19039 15.25539,-1.63711 13.50817,-4.3044 23.30712,-15.19314 26.38187,-29.31602 0.69469,-3.191 0.70604,-11.85735 0.0175,-15.08125 -0.96105,-4.50752 -3.04652,-9.78961 -5.16094,-13.07311 -4.75226,-7.37981 -11.98171,-13.17853 -19.92384,-15.98094 -4.59232,-1.62033 -7.22432,-2.03446 -12.93204,-2.03449 z m -412.901412,0.76687 c -18.914748,0.0802 -35.422438,13.87909 -38.230228,33.46307 -0.45228,3.15489 -0.17156,10.60553 0.50954,13.52735 3.67691,15.77388 16.09148,27.44772 31.9293,30.02452 3.41342,0.55528 10.510232,0.35775 14.004319,-0.39015 7.464504,-1.59771 13.735553,-5.0672 19.329056,-10.6929 5.482696,-5.51429 8.6546,-11.26762 10.5079,-19.06034 0.785601,-3.30319 0.853229,-12.31593 0.118322,-15.75613 -3.273795,-15.3253 -15.018411,-27.20284 -29.947526,-30.28653 -2.767435,-0.57163 -5.518573,-0.84035 -8.220683,-0.82889 z m 205.323912,26.09194 c -3.2448,-0.0201 -6.57434,0.15028 -8.983449,0.50488 -6.484858,0.95461 -11.578934,2.53616 -17.4625,5.42086 -18.117978,8.88341 -29.978006,26.30456 -31.626995,46.45816 -0.956072,11.68479 2.306691,24.50761 8.751914,34.39583 9.862423,15.1307 26.136494,24.7799 44.17404,26.19219 5.4016,0.42299 12.42959,-0.11636 17.85937,-1.37096 5.77393,-1.33411 13.81477,-4.79634 18.65313,-8.03106 11.08567,-7.41159 19.35787,-18.43961 23.1159,-30.81671 2.90005,-9.5514 3.10346,-20.43088 0.56587,-30.2886 -5.74186,-22.3053 -24.94354,-39.09732 -48.10353,-42.06772 -1.94794,-0.24979 -4.42005,-0.38113 -6.94375,-0.39687 z m -0.65527,7.69101 c 11.24697,0.007 22.42633,3.71925 31.35932,10.90785 2.79961,2.253 7.29864,6.9606 9.19843,9.62422 16.20395,22.72151 10.4255,53.46848 -12.94702,68.89038 -5.29397,3.49319 -12.09138,6.23887 -18.34412,7.40989 -3.93739,0.7374 -12.34813,0.93697 -16.223798,0.38497 -6.50875,-0.9271 -12.699497,-3.07716 -18.55753,-6.44456 -11.071358,-6.3641 -19.461507,-17.37656 -22.728317,-29.83177 -1.990408,-7.58899 -2.003954,-16.60808 -0.03619,-24.10137 3.629422,-13.82099 12.825836,-25.07774 25.795843,-31.57585 7.061385,-3.53783 14.788091,-5.26831 22.483382,-5.26376 z m -0.44907,6.75307 c -8.048892,0.0151 -16.112069,2.29547 -22.828067,6.65594 -9.711478,6.30528 -16.095874,15.70643 -18.54925,27.31513 -0.47752,2.25938 -0.591502,3.692 -0.610287,7.67292 -0.02461,5.17858 0.198172,7.06006 1.345141,11.37708 4.240001,15.95848 17.735973,27.95352 34.357574,30.53612 2.930129,0.45529 8.198409,0.51485 11.370359,0.12866 9.641,-1.17369 18.30586,-5.58307 25.30131,-12.87467 12.18348,-12.69929 14.97195,-31.83864 6.96651,-47.82032 -5.00785,-9.99741 -14.13031,-17.73184 -24.91269,-21.12274 -4.01225,-1.26177 -8.22449,-1.87595 -12.4406,-1.86812 z"
         style="fill:#0ac92c;fill-opacity:1;stroke-width:0.26458332"
         id="path4138"
         inkscape:connector-curvature="0" />
      <text
         id="text819"
         y="-276.80737"
         x="63.47974"
         style="font-style:normal;font-variant:normal;font-weight:normal;font-stretch:normal;font-size:5.64444447px;line-height:1.25;font-family:Arial;-inkscape-font-specification:Arial;letter-spacing:0px;word-spacing:0px;fill:#000000;fill-opacity:1;stroke:none;stroke-width:0.26458332"
         xml:space="preserve"><tspan
           style="font-style:normal;font-variant:normal;font-weight:normal;font-stretch:normal;font-family:Arial;-inkscape-font-specification:Arial;stroke-width:0.26458332"
           y="-271.72311"
           x="63.47974"
           id="tspan817"
           sodipodi:role="line" /></text>
      <g
         transform="translate(-1.9479325,24.330798)"
         id="text823"
         style="font-style:normal;font-variant:normal;font-weight:normal;font-stretch:normal;font-size:8.99118042px;line-height:1.25;font-family:Arial;-inkscape-font-specification:Arial;letter-spacing:0px;word-spacing:0px;fill:#0fd32e;fill-opacity:1;stroke:none;stroke-width:0.26458332"
         aria-label="Pai">
        <path
           inkscape:connector-curvature="0"
           id="path876"
           style="fill:#0fd32e;fill-opacity:1;stroke-width:0.26458332"
           d="m 101.09576,-401.77139 v -6.43607 h 2.4278 q 0.64097,0 0.97902,0.0615 0.47414,0.079 0.79463,0.30293 0.32048,0.21951 0.51365,0.61902 0.19756,0.39951 0.19756,0.87804 0,0.82097 -0.52243,1.3917 -0.52244,0.56634 -1.8878,0.56634 h -1.65072 v 2.61658 z m 0.85171,-3.37609 h 1.66389 q 0.82536,0 1.17219,-0.30731 0.34683,-0.30732 0.34683,-0.86488 0,-0.4039 -0.20634,-0.68926 -0.20195,-0.28976 -0.53561,-0.38195 -0.21512,-0.0571 -0.79463,-0.0571 h -1.64633 z" />
        <path
           inkscape:connector-curvature="0"
           id="path878"
           style="fill:#0fd32e;fill-opacity:1;stroke-width:0.26458332"
           d="m 110.04304,-402.34651 q -0.43902,0.37317 -0.84731,0.52682 -0.4039,0.15366 -0.86927,0.15366 -0.76829,0 -1.18097,-0.37317 -0.41268,-0.37756 -0.41268,-0.96146 0,-0.34243 0.15366,-0.62341 0.15805,-0.28536 0.40829,-0.45658 0.25463,-0.17122 0.57073,-0.25902 0.23268,-0.0615 0.70244,-0.11854 0.95706,-0.11415 1.40926,-0.27219 0.004,-0.16244 0.004,-0.20634 0,-0.48293 -0.2239,-0.68049 -0.30293,-0.2678 -0.9,-0.2678 -0.55756,0 -0.82536,0.19756 -0.26342,0.19317 -0.39073,0.68926 l -0.77268,-0.10536 q 0.10536,-0.4961 0.34683,-0.79902 0.24146,-0.30732 0.69804,-0.46976 0.45659,-0.16683 1.05805,-0.16683 0.59707,0 0.97024,0.14049 0.37316,0.14049 0.54877,0.35561 0.17561,0.21073 0.24586,0.53561 0.0395,0.20195 0.0395,0.72877 v 1.05366 q 0,1.10194 0.0483,1.39609 0.0527,0.28975 0.20195,0.55756 h -0.82536 q -0.12293,-0.24586 -0.15805,-0.57512 z m -0.0659,-1.76487 q -0.43024,0.17561 -1.29073,0.29853 -0.48731,0.0703 -0.68926,0.15805 -0.20195,0.0878 -0.31171,0.25902 -0.10976,0.16683 -0.10976,0.37317 0,0.3161 0.23708,0.52683 0.24146,0.21073 0.70243,0.21073 0.45659,0 0.81219,-0.19756 0.35561,-0.20195 0.52244,-0.54878 0.12732,-0.2678 0.12732,-0.79024 z" />
        <path
           inkscape:connector-curvature="0"
           id="path880"
           style="fill:#0fd32e;fill-opacity:1;stroke-width:0.26458332"
           d="m 112.00986,-407.29869 v -0.90877 h 0.79024 v 0.90877 z m 0,5.5273 v -4.66242 h 0.79024 v 4.66242 z" />
      </g>
      <g
         transform="translate(-10.660761,1070.6463)"
         id="text827"
         style="font-style:normal;font-variant:normal;font-weight:normal;font-stretch:normal;font-size:8.99118042px;line-height:1.25;font-family:Arial;-inkscape-font-specification:Arial;letter-spacing:0px;word-spacing:0px;fill:#0fd32e;fill-opacity:1;stroke:none;stroke-width:0.26458332"
         aria-label="Filho">
        <path
           inkscape:connector-curvature="0"
           id="path865"
           style="fill:#0fd32e;fill-opacity:1;stroke-width:0.26458332"
           d="m 106.03864,-389.66806 v -6.43607 h 4.34194 v 0.75951 h -3.49023 v 1.99316 h 3.02047 v 0.75951 h -3.02047 v 2.92389 z" />
        <path
           inkscape:connector-curvature="0"
           id="path867"
           style="fill:#0fd32e;fill-opacity:1;stroke-width:0.26458332"
           d="m 111.39472,-395.19535 v -0.90878 h 0.79024 v 0.90878 z m 0,5.52729 v -4.66242 h 0.79024 v 4.66242 z" />
        <path
           inkscape:connector-curvature="0"
           id="path869"
           style="fill:#0fd32e;fill-opacity:1;stroke-width:0.26458332"
           d="m 113.37471,-389.66806 v -6.43607 h 0.79024 v 6.43607 z" />
        <path
           inkscape:connector-curvature="0"
           id="path871"
           style="fill:#0fd32e;fill-opacity:1;stroke-width:0.26458332"
           d="m 115.39421,-389.66806 v -6.43607 h 0.79024 v 2.30926 q 0.55317,-0.64097 1.3961,-0.64097 0.51804,0 0.89999,0.20634 0.38195,0.20195 0.54439,0.56194 0.16683,0.36 0.16683,1.04488 v 2.95462 h -0.79024 v -2.95462 q 0,-0.59268 -0.25903,-0.86049 -0.25463,-0.27219 -0.72438,-0.27219 -0.35122,0 -0.66293,0.18439 -0.30731,0.18 -0.43902,0.49171 -0.13171,0.3117 -0.13171,0.86048 v 2.55072 z" />
        <path
           inkscape:connector-curvature="0"
           id="path873"
           style="fill:#0fd32e;fill-opacity:1;stroke-width:0.26458332"
           d="m 120.10492,-391.99927 q 0,-1.29512 0.72,-1.91853 0.60146,-0.51804 1.46634,-0.51804 0.96146,0 1.5717,0.63219 0.61024,0.6278 0.61024,1.73853 0,0.89999 -0.2722,1.41804 -0.2678,0.51366 -0.78585,0.79902 -0.51365,0.28537 -1.12389,0.28537 -0.97902,0 -1.58488,-0.62781 -0.60146,-0.6278 -0.60146,-1.80877 z m 0.8122,0 q 0,0.89561 0.39073,1.34341 0.39073,0.44341 0.98341,0.44341 0.58829,0 0.97902,-0.4478 0.39073,-0.4478 0.39073,-1.36536 0,-0.86488 -0.39512,-1.30829 -0.39073,-0.4478 -0.97463,-0.4478 -0.59268,0 -0.98341,0.44341 -0.39073,0.44341 -0.39073,1.33902 z" />
      </g>
      <g
         transform="translate(-534.70678,509.72484)"
         id="text831"
         style="font-style:normal;font-variant:normal;font-weight:normal;font-stretch:normal;font-size:8.99118042px;line-height:1.25;font-family:Arial;-inkscape-font-specification:Arial;letter-spacing:0px;word-spacing:0px;fill:#0fd32e;fill-opacity:1;stroke:none;stroke-width:0.26458332"
         aria-label="Espírito">
        <path
           inkscape:connector-curvature="0"
           id="path848"
           style="fill:#0fd32e;fill-opacity:1;stroke-width:0.26458332"
           d="m 99.384266,-372.95401 v -6.43607 h 4.653634 v 0.75951 h -3.80193 v 1.97121 h 3.56047 v 0.75512 h -3.56047 v 2.19072 h 3.9512 v 0.75951 z" />
        <path
           inkscape:connector-curvature="0"
           id="path850"
           style="fill:#0fd32e;fill-opacity:1;stroke-width:0.26458332"
           d="m 104.95546,-374.34571 0.78146,-0.12293 q 0.0658,0.46976 0.36439,0.72 0.30293,0.25024 0.84292,0.25024 0.54439,0 0.8078,-0.21951 0.26342,-0.2239 0.26342,-0.52244 0,-0.2678 -0.23268,-0.42146 -0.16244,-0.10536 -0.80781,-0.2678 -0.86926,-0.21951 -1.20731,-0.37756 -0.33365,-0.16244 -0.50926,-0.44341 -0.17122,-0.28537 -0.17122,-0.62781 0,-0.3117 0.14049,-0.57511 0.14487,-0.26781 0.39073,-0.44342 0.18438,-0.13609 0.50048,-0.22829 0.32049,-0.0966 0.68488,-0.0966 0.54877,0 0.96146,0.15804 0.41707,0.15805 0.61463,0.43025 0.19756,0.2678 0.27219,0.71999 l -0.77268,0.10537 q -0.0527,-0.36 -0.30731,-0.56195 -0.25025,-0.20195 -0.71122,-0.20195 -0.54439,0 -0.77707,0.18 -0.23268,0.18 -0.23268,0.42146 0,0.15366 0.0966,0.27658 0.0966,0.12732 0.30293,0.21073 0.11853,0.0439 0.69804,0.20196 0.83854,0.2239 1.1678,0.36877 0.33366,0.14049 0.52244,0.41269 0.18878,0.27219 0.18878,0.67609 0,0.39512 -0.23268,0.74634 -0.22829,0.34683 -0.66293,0.54 -0.43463,0.18878 -0.98341,0.18878 -0.90877,0 -1.38731,-0.37756 -0.47414,-0.37756 -0.60585,-1.11951 z" />
        <path
           inkscape:connector-curvature="0"
           id="path852"
           style="fill:#0fd32e;fill-opacity:1;stroke-width:0.26458332"
           d="m 109.76715,-371.16719 v -6.44924 h 0.71999 v 0.60585 q 0.25464,-0.35561 0.57512,-0.53121 0.32049,-0.18 0.77707,-0.18 0.59707,0 1.05366,0.30731 0.45658,0.30732 0.68926,0.86927 0.23268,0.55755 0.23268,1.22487 0,0.71561 -0.25902,1.29072 -0.25463,0.57073 -0.74634,0.87805 -0.48731,0.30293 -1.02731,0.30293 -0.39512,0 -0.71122,-0.16683 -0.3117,-0.16683 -0.51365,-0.42146 v 2.26974 z m 0.7156,-4.09169 q 0,0.9 0.36439,1.33024 0.36439,0.43024 0.88244,0.43024 0.52682,0 0.89999,-0.44341 0.37756,-0.4478 0.37756,-1.38292 0,-0.89122 -0.36878,-1.33463 -0.36438,-0.44341 -0.87365,-0.44341 -0.50488,0 -0.89561,0.47414 -0.38634,0.46976 -0.38634,1.36975 z" />
        <path
           inkscape:connector-curvature="0"
           id="path854"
           style="fill:#0fd32e;fill-opacity:1;stroke-width:0.26458332"
           d="m 115.04859,-372.95401 v -4.66242 h 0.79024 v 4.66242 z m -0.0395,-5.24193 0.5839,-1.22926 h 1.03609 l -0.96585,1.22926 z" />
        <path
           inkscape:connector-curvature="0"
           id="path856"
           style="fill:#0fd32e;fill-opacity:1;stroke-width:0.26458332"
           d="m 117.25687,-372.95401 v -4.66242 h 0.71122 v 0.70683 q 0.27219,-0.4961 0.50048,-0.65415 0.23269,-0.15804 0.50927,-0.15804 0.39951,0 0.81219,0.25463 l -0.27219,0.73317 q -0.28976,-0.17122 -0.57951,-0.17122 -0.25903,0 -0.46537,0.15805 -0.20634,0.15365 -0.29414,0.43024 -0.13171,0.42146 -0.13171,0.92194 v 2.44097 z" />
        <path
           inkscape:connector-curvature="0"
           id="path858"
           style="fill:#0fd32e;fill-opacity:1;stroke-width:0.26458332"
           d="m 120.27295,-378.4813 v -0.90878 h 0.79025 v 0.90878 z m 0,5.52729 v -4.66242 h 0.79025 v 4.66242 z" />
        <path
           inkscape:connector-curvature="0"
           id="path860"
           style="fill:#0fd32e;fill-opacity:1;stroke-width:0.26458332"
           d="m 123.99587,-373.66084 0.11414,0.69805 q -0.33365,0.0702 -0.59707,0.0702 -0.43024,0 -0.66731,-0.13609 -0.23707,-0.1361 -0.33366,-0.35561 -0.0966,-0.2239 -0.0966,-0.93512 v -2.68243 h -0.57951 v -0.61463 h 0.57951 v -1.15463 l 0.78585,-0.47414 v 1.62877 h 0.79463 v 0.61463 h -0.79463 v 2.72633 q 0,0.33805 0.0395,0.43463 0.0439,0.0966 0.13609,0.15366 0.0966,0.0571 0.2722,0.0571 0.13171,0 0.34683,-0.0307 z" />
        <path
           inkscape:connector-curvature="0"
           id="path862"
           style="fill:#0fd32e;fill-opacity:1;stroke-width:0.26458332"
           d="m 124.47001,-375.28522 q 0,-1.29512 0.72,-1.91853 0.60146,-0.51804 1.46633,-0.51804 0.96146,0 1.5717,0.63219 0.61024,0.6278 0.61024,1.73853 0,0.89999 -0.27219,1.41804 -0.2678,0.51366 -0.78585,0.79902 -0.51366,0.28537 -1.1239,0.28537 -0.97902,0 -1.58487,-0.62781 -0.60146,-0.6278 -0.60146,-1.80877 z m 0.81219,0 q 0,0.89561 0.39073,1.34341 0.39073,0.44341 0.98341,0.44341 0.58829,0 0.97902,-0.4478 0.39073,-0.4478 0.39073,-1.36536 0,-0.86488 -0.39512,-1.30829 -0.39073,-0.4478 -0.97463,-0.4478 -0.59268,0 -0.98341,0.44341 -0.39073,0.44341 -0.39073,1.33902 z" />
      </g>
      <g
         transform="translate(515.52966,496.70493)"
         id="text835"
         style="font-style:normal;font-variant:normal;font-weight:normal;font-stretch:normal;font-size:8.99118042px;line-height:1.25;font-family:Arial;-inkscape-font-specification:Arial;letter-spacing:0px;word-spacing:0px;fill:#0fd32e;fill-opacity:1;stroke:none;stroke-width:0.26458332"
         aria-label="Santo">
        <path
           inkscape:connector-curvature="0"
           id="path837"
           style="fill:#0fd32e;fill-opacity:1;stroke-width:0.26458332"
           d="m 101.38239,-360.32491 0.80341,-0.0702 q 0.0571,0.48292 0.26342,0.79463 0.21073,0.30732 0.64975,0.50049 0.43902,0.18878 0.9878,0.18878 0.48732,0 0.86049,-0.14488 0.37317,-0.14488 0.55316,-0.39512 0.18439,-0.25463 0.18439,-0.55317 0,-0.30293 -0.17561,-0.52683 -0.1756,-0.22829 -0.5795,-0.38195 -0.25903,-0.10097 -1.14585,-0.3117 -0.88683,-0.21512 -1.24244,-0.4039 -0.46097,-0.24147 -0.68926,-0.59707 -0.2239,-0.36 -0.2239,-0.80341 0,-0.48732 0.27658,-0.90878 0.27658,-0.42585 0.8078,-0.64536 0.53122,-0.21952 1.18097,-0.21952 0.71561,0 1.26,0.23269 0.54877,0.22829 0.84292,0.67609 0.29414,0.4478 0.3161,1.01414 l -0.81659,0.0615 q -0.0659,-0.61025 -0.4478,-0.92195 -0.37756,-0.31171 -1.11951,-0.31171 -0.77268,0 -1.12828,0.28537 -0.35122,0.28097 -0.35122,0.68048 0,0.34683 0.25024,0.57073 0.24585,0.2239 1.28195,0.46097 1.04048,0.23269 1.42682,0.4083 0.56195,0.25902 0.82975,0.65853 0.26781,0.39512 0.26781,0.91317 0,0.51365 -0.29415,0.97024 -0.29414,0.45219 -0.84731,0.70682 -0.54878,0.25025 -1.23805,0.25025 -0.87365,0 -1.46633,-0.25464 -0.58829,-0.25463 -0.92634,-0.7639 -0.33366,-0.51365 -0.35122,-1.15902 z" />
        <path
           inkscape:connector-curvature="0"
           id="path839"
           style="fill:#0fd32e;fill-opacity:1;stroke-width:0.26458332"
           d="m 110.61943,-358.83223 q -0.43903,0.37317 -0.84732,0.52683 -0.4039,0.15365 -0.86926,0.15365 -0.76829,0 -1.18097,-0.37316 -0.41268,-0.37756 -0.41268,-0.96146 0,-0.34244 0.15365,-0.62342 0.15805,-0.28536 0.4083,-0.45658 0.25463,-0.17122 0.57072,-0.25902 0.23269,-0.0615 0.70244,-0.11854 0.95707,-0.11414 1.40926,-0.27219 0.004,-0.16244 0.004,-0.20634 0,-0.48293 -0.2239,-0.68049 -0.30292,-0.2678 -0.89999,-0.2678 -0.55756,0 -0.82537,0.19756 -0.26341,0.19317 -0.39073,0.68926 l -0.77268,-0.10536 q 0.10537,-0.4961 0.34683,-0.79902 0.24146,-0.30732 0.69805,-0.46976 0.45658,-0.16682 1.05804,-0.16682 0.59707,0 0.97024,0.14048 0.37317,0.14049 0.54878,0.35561 0.17561,0.21073 0.24585,0.53561 0.0395,0.20195 0.0395,0.72878 v 1.05365 q 0,1.10195 0.0483,1.39609 0.0527,0.28976 0.20195,0.55756 h -0.82537 q -0.12292,-0.24585 -0.15804,-0.57512 z m -0.0659,-1.76487 q -0.43024,0.17561 -1.29072,0.29853 -0.48732,0.0702 -0.68927,0.15805 -0.20195,0.0878 -0.3117,0.25903 -0.10976,0.16682 -0.10976,0.37317 0,0.31609 0.23707,0.52682 0.24146,0.21073 0.70244,0.21073 0.45658,0 0.81219,-0.19756 0.35561,-0.20195 0.52244,-0.54878 0.12731,-0.2678 0.12731,-0.79024 z" />
        <path
           inkscape:connector-curvature="0"
           id="path841"
           style="fill:#0fd32e;fill-opacity:1;stroke-width:0.26458332"
           d="m 112.58186,-358.25711 v -4.66242 h 0.71121 v 0.66292 q 0.51366,-0.76828 1.4839,-0.76828 0.42146,0 0.77268,0.15365 0.35561,0.14927 0.53122,0.39512 0.1756,0.24586 0.24585,0.5839 0.0439,0.21951 0.0439,0.76829 v 2.86682 h -0.79024 v -2.83609 q 0,-0.48292 -0.0922,-0.71999 -0.0922,-0.24147 -0.32926,-0.38195 -0.23268,-0.14488 -0.54878,-0.14488 -0.50488,0 -0.87365,0.32049 -0.36439,0.32048 -0.36439,1.21609 v 2.54633 z" />
        <path
           inkscape:connector-curvature="0"
           id="path843"
           style="fill:#0fd32e;fill-opacity:1;stroke-width:0.26458332"
           d="m 119.31207,-358.96394 0.11415,0.69805 q -0.33366,0.0702 -0.59707,0.0702 -0.43025,0 -0.66732,-0.13609 -0.23707,-0.1361 -0.33366,-0.35561 -0.0966,-0.2239 -0.0966,-0.93512 v -2.68243 h -0.57951 v -0.61463 h 0.57951 v -1.15463 l 0.78585,-0.47414 v 1.62877 h 0.79463 v 0.61463 h -0.79463 v 2.72633 q 0,0.33805 0.0395,0.43463 0.0439,0.0966 0.1361,0.15366 0.0966,0.0571 0.27219,0.0571 0.13171,0 0.34683,-0.0307 z" />
        <path
           inkscape:connector-curvature="0"
           id="path845"
           style="fill:#0fd32e;fill-opacity:1;stroke-width:0.26458332"
           d="m 119.78622,-360.58832 q 0,-1.29512 0.71999,-1.91853 0.60146,-0.51804 1.46634,-0.51804 0.96146,0 1.5717,0.63219 0.61024,0.6278 0.61024,1.73853 0,0.89999 -0.27219,1.41804 -0.26781,0.51366 -0.78585,0.79902 -0.51366,0.28536 -1.1239,0.28536 -0.97902,0 -1.58487,-0.6278 -0.60146,-0.6278 -0.60146,-1.80877 z m 0.81219,0 q 0,0.89561 0.39073,1.34341 0.39073,0.44341 0.98341,0.44341 0.58829,0 0.97902,-0.4478 0.39073,-0.4478 0.39073,-1.36536 0,-0.86488 -0.39512,-1.30829 -0.39073,-0.4478 -0.97463,-0.4478 -0.59268,0 -0.98341,0.44341 -0.39073,0.44341 -0.39073,1.33902 z" />
      </g>
    </g>
  </g>
</svg>
